<svg width="25" height="24" viewBox="0 0 25 24" fill="none" xmlns="http://www.w3.org/2000/svg">
<path fill-rule="evenodd" clip-rule="evenodd" d="M22.5 4C22.5 5.65685 21.1569 7 19.5 7C18.1938 7 17.0825 6.16519 16.6707 5H7.5C5.84315 5 4.5 6.34315 4.5 8V8.25926C4.5 9.91611 5.84315 11.2593 7.5 11.2593H17.6296C20.3195 11.2593 22.5 13.4398 22.5 16.1296C22.5 18.8195 20.3195 21 17.6296 21H15.9142L16.2071 21.2929C16.5977 21.6834 16.5977 22.3166 16.2071 22.7071C15.8166 23.0976 15.1834 23.0976 14.7929 22.7071L12.0858 20L14.7929 17.2929C15.1834 16.9024 15.8166 16.9024 16.2071 17.2929C16.5977 17.6834 16.5977 18.3166 16.2071 18.7071L15.9142 19H17.6296C19.2149 19 20.5 17.7149 20.5 16.1296C20.5 14.5444 19.2149 13.2593 17.6296 13.2593H7.5C4.73858 13.2593 2.5 11.0207 2.5 8.25926V8C2.5 5.23858 4.73858 3 7.5 3H16.6707C17.0825 1.83481 18.1938 1 19.5 1C21.1569 1 22.5 2.34315 22.5 4ZM5.5 23C7.15685 23 8.5 21.6569 8.5 20C8.5 18.3431 7.15685 17 5.5 17C3.84315 17 2.5 18.3431 2.5 20C2.5 21.6569 3.84315 23 5.5 23Z" fill="white"/>
</svg>
