<svg width="25" height="24" viewBox="0 0 25 24" fill="none" xmlns="http://www.w3.org/2000/svg">
<path fill-rule="evenodd" clip-rule="evenodd" d="M15.3125 5.92188V2.48798C15.3125 2.19323 14.9798 2.02138 14.7394 2.192L9.59833 5.9407C9.34017 6.12894 9.1875 6.42921 9.1875 6.74871V19.6094V21.5187C9.1875 21.8061 9.51166 21.9739 9.74632 21.808L14.9017 18.0489C15.1598 17.8607 15.3125 17.5604 15.3125 17.2409V5.92188ZM17.3125 18.6758C17.3125 18.9953 17.4652 19.2956 17.7233 19.4838L20.9108 21.808C21.2149 22.0298 21.6178 22.062 21.9532 21.8914C22.2887 21.7208 22.5 21.3764 22.5 21V7.50001C22.5 7.18051 22.3473 6.88024 22.0892 6.692L17.9482 3.67252C17.6838 3.47978 17.3125 3.66858 17.3125 3.99572V18.6758ZM4.12252 2.21741L6.81002 4.35519C7.04853 4.54491 7.1875 4.83304 7.1875 5.13779V19.8817C7.1875 20.2166 6.80057 20.4033 6.53849 20.1948L2.87748 17.2826C2.63897 17.0929 2.5 16.8048 2.5 16.5V3.00001C2.5 2.61611 2.71978 2.26609 3.06556 2.09931C3.41134 1.93253 3.82208 1.97842 4.12252 2.21741Z" fill="#252849"/>
</svg>
