<svg width="72" height="72" viewBox="0 0 72 72" fill="none" xmlns="http://www.w3.org/2000/svg">
<path d="M0 19.2C0 12.4794 0 9.11905 1.30792 6.55211C2.4584 4.29417 4.29417 2.4584 6.55211 1.30792C9.11905 0 12.4794 0 19.2 0H52.8C59.5206 0 62.8809 0 65.4479 1.30792C67.7058 2.4584 69.5416 4.29417 70.6921 6.55211C72 9.11905 72 12.4794 72 19.2V52.8C72 59.5206 72 62.8809 70.6921 65.4479C69.5416 67.7058 67.7058 69.5416 65.4479 70.6921C62.8809 72 59.5206 72 52.8 72H19.2C12.4794 72 9.11905 72 6.55211 70.6921C4.29417 69.5416 2.4584 67.7058 1.30792 65.4479C0 62.8809 0 59.5206 0 52.8V19.2Z" fill="white"/>
<path d="M1 19.2C1 15.8232 1.00078 13.3507 1.16017 11.3999C1.31861 9.46067 1.62877 8.12511 2.19893 7.0061C3.25354 4.93632 4.93632 3.25354 7.0061 2.19893C8.12511 1.62877 9.46067 1.31861 11.3999 1.16017C13.3507 1.00078 15.8232 1 19.2 1H52.8C56.1768 1 58.6493 1.00078 60.6001 1.16017C62.5393 1.31861 63.8749 1.62877 64.9939 2.19893C67.0637 3.25354 68.7465 4.93632 69.8011 7.0061C70.3712 8.12511 70.6814 9.46067 70.8398 11.3999C70.9992 13.3507 71 15.8232 71 19.2V52.8C71 56.1768 70.9992 58.6493 70.8398 60.6001C70.6814 62.5393 70.3712 63.8749 69.8011 64.9939C68.7465 67.0637 67.0637 68.7465 64.9939 69.8011C63.8749 70.3712 62.5393 70.6814 60.6001 70.8398C58.6493 70.9992 56.1768 71 52.8 71H19.2C15.8232 71 13.3507 70.9992 11.3999 70.8398C9.46067 70.6814 8.12511 70.3712 7.0061 69.8011C4.93632 68.7465 3.25354 67.0637 2.19893 64.9939L1.30792 65.4479L2.19893 64.9939C1.62877 63.8749 1.31861 62.5393 1.16017 60.6001C1.00078 58.6493 1 56.1768 1 52.8V19.2Z" stroke="#4CAF50" stroke-opacity="0.48" stroke-width="2"/>
<path fill-rule="evenodd" clip-rule="evenodd" d="M22.6507 35.9999C22.6507 35.1322 23.3542 34.4287 24.222 34.4287L34.5718 34.429L34.5715 24.0792C34.5715 23.2114 35.2749 22.5079 36.1427 22.5079C37.0105 22.5079 37.714 23.2114 37.714 24.0791L37.7143 34.4291L48.0633 34.4294C48.9311 34.4294 49.6345 35.1329 49.6345 36.0007C49.6345 36.8685 48.931 37.5719 48.0632 37.5719L37.7144 37.5716L37.7147 47.9204C37.7147 48.7882 37.0112 49.4917 36.1435 49.4917C35.2757 49.4918 34.5722 48.7883 34.5722 47.9205L34.5719 37.5715L24.2219 37.5712C23.3541 37.5712 22.6507 36.8677 22.6507 35.9999Z" fill="#4CAF50"/>
</svg>
