<svg width="25" height="24" viewBox="0 0 25 24" fill="none" xmlns="http://www.w3.org/2000/svg">
<path d="M11.48 1.99969C11.0327 1.99969 10.6157 2.20978 10.3714 2.55814L9.1087 4.35867L7.05245 5.49228L4.74432 5.60897C4.29772 5.63156 3.89361 5.86233 3.66998 6.22255L2.67742 7.82126C2.45378 8.18149 2.44091 8.62234 2.64318 8.99328L3.6886 10.9105V13.0889L2.64318 15.0061C2.44091 15.377 2.45378 15.8179 2.67742 16.1781L3.66998 17.7768C3.89361 18.1371 4.29772 18.3678 4.74432 18.3904L7.05245 18.5071L9.16382 19.6407L10.4265 21.4413C10.6709 21.7896 11.0878 21.9997 11.5351 21.9997H13.5202C13.9675 21.9997 14.3845 21.7896 14.6288 21.4413L15.8915 19.6407L17.9478 18.5072L20.2559 18.3905C20.7025 18.3679 21.1066 18.1371 21.3302 17.7769L22.3228 16.1782C22.5464 15.818 22.5593 15.3771 22.357 15.0062L21.3116 13.0889V10.9105L22.357 8.99328C22.5593 8.62234 22.5464 8.18149 22.3228 7.82126L21.3302 6.22255C21.1066 5.86233 20.7025 5.63156 20.2559 5.60897L17.9478 5.49228L15.8364 4.35867L14.5737 2.55814C14.3294 2.20978 13.9124 1.99969 13.4651 1.99969H11.48Z" stroke="#3B3E5B" stroke-width="2"/>
<path d="M11.268 9.86572C12.0304 9.42555 12.9698 9.42555 13.7322 9.86572C14.4945 10.3059 14.9642 11.1194 14.9642 11.9997C14.9642 12.88 14.4945 13.6935 13.7322 14.1337C12.9698 14.5738 12.0304 14.5738 11.268 14.1337C10.5057 13.6935 10.036 12.88 10.036 11.9997C10.036 11.1194 10.5057 10.3059 11.268 9.86572Z" stroke="#3B3E5B" stroke-width="2"/>
</svg>
