<svg width="65" height="64" viewBox="0 0 65 64" fill="none" xmlns="http://www.w3.org/2000/svg">
<circle opacity="0.16" cx="32.5" cy="32" r="32" fill="#4CAF50"/>
<path fill-rule="evenodd" clip-rule="evenodd" d="M31.5 21C31.5 21.5523 31.9477 22 32.5 22C33.0523 22 33.5 21.5523 33.5 21V18C33.5 17.4477 33.0523 17 32.5 17C31.9477 17 31.5 17.4477 31.5 18V21ZM22.5 36.7914C22.5 31.2685 26.9772 26.7914 32.5 26.7914C38.0228 26.7914 42.5 31.2685 42.5 36.7914C42.5 37.5512 42.4154 38.2902 42.2555 39H22.7445C22.5846 38.2902 22.5 37.5512 22.5 36.7914ZM20.5285 37.625H19.5C18.9477 37.625 18.5 37.1773 18.5 36.625C18.5 36.0727 18.9477 35.625 19.5 35.625H20.556C21.1424 29.5449 26.2661 24.7914 32.5 24.7914C38.7339 24.7914 43.8576 29.5449 44.444 35.625H45.5C46.0523 35.625 46.5 36.0727 46.5 36.625C46.5 37.1773 46.0523 37.625 45.5 37.625H44.4715C44.4082 38.5454 44.2411 39.4382 43.9813 40.2913L43.7655 41H21.2345L21.0187 40.2913C20.7589 39.4382 20.5918 38.5454 20.5285 37.625ZM20.5 43C19.9477 43 19.5 43.4477 19.5 44C19.5 44.5523 19.9477 45 20.5 45H44.5C45.0523 45 45.5 44.5523 45.5 44C45.5 43.4477 45.0523 43 44.5 43H20.5ZM31.5 29.7914C31.5 29.2391 31.9477 28.7914 32.5 28.7914C35.5294 28.7914 38.164 30.4756 39.5211 32.954C39.7863 33.4384 39.6087 34.0461 39.1242 34.3114C38.6398 34.5766 38.0321 34.399 37.7668 33.9146C36.7466 32.0513 34.7697 30.7914 32.5 30.7914C31.9477 30.7914 31.5 30.3437 31.5 29.7914ZM28.5 22C27.9477 22 27.5 21.5523 27.5 21V20C27.5 19.4477 27.9477 19 28.5 19C29.0523 19 29.5 19.4477 29.5 20V21C29.5 21.5523 29.0523 22 28.5 22ZM35.5 21C35.5 21.5523 35.9477 22 36.5 22C37.0523 22 37.5 21.5523 37.5 21V20C37.5 19.4477 37.0523 19 36.5 19C35.9477 19 35.5 19.4477 35.5 20V21Z" fill="#4CAF50"/>
</svg>
