<svg width="65" height="64" viewBox="0 0 65 64" fill="none" xmlns="http://www.w3.org/2000/svg">
<circle opacity="0.16" cx="32.5" cy="32" r="32" fill="#4CAF50"/>
<path fill-rule="evenodd" clip-rule="evenodd" d="M32.8939 19.0809C32.6424 18.973 32.3576 18.973 32.1061 19.0809L18.1061 25.0809C17.7384 25.2384 17.5 25.6 17.5 26V29.1875C17.5 29.7398 17.9477 30.1875 18.5 30.1875H19.5V31.7875C19.5 32.4863 20.0119 33.0655 20.6812 33.1705L20.318 43H18.5C17.9477 43 17.5 43.4477 17.5 44C17.5 44.5523 17.9477 45 18.5 45H46.5C47.0523 45 47.5 44.5523 47.5 44C47.5 43.4477 47.0523 43 46.5 43H44.6821L44.3189 33.1705C44.9881 33.0654 45.5 32.4862 45.5 31.7875V30.1875H46.5C47.0523 30.1875 47.5 29.7398 47.5 29.1875V26C47.5 25.6 47.2616 25.2384 46.8939 25.0809L32.8939 19.0809ZM43.5 30.1875H39.5V31.1875H43.5V30.1875ZM37.5 28.1875H45.5V26.6594L32.5 21.088L19.5 26.6594V28.1875H27.5H28.5H36.5H37.5ZM37.5 30.1875V31.7875C37.5 32.4863 38.0119 33.0655 38.6812 33.1705L38.318 43H35.6821L35.3189 33.1705C35.9881 33.0654 36.5 32.4862 36.5 31.7875V30.1875H37.5ZM40.682 33.1875L40.3194 43H42.6807L42.3182 33.1875H40.682ZM21.5 30.1875H25.5V31.1875H21.5V30.1875ZM28.5 30.1875H27.5V31.7875C27.5 32.4862 26.9881 33.0654 26.3189 33.1705L26.6821 43H29.318L29.6812 33.1705C29.0119 33.0655 28.5 32.4863 28.5 31.7875V30.1875ZM22.682 33.1875H24.3182L24.6807 43H22.3194L22.682 33.1875ZM30.5 30.1875V31.1875H34.5V30.1875H30.5ZM33.3182 33.1875H31.682L31.3194 43H33.6807L33.3182 33.1875ZM32.1061 23.0809C32.3576 22.973 32.6424 22.973 32.8939 23.0809L36.3939 24.5809C36.9016 24.7984 37.1367 25.3863 36.9192 25.8939C36.7016 26.4015 36.1137 26.6367 35.6061 26.4191L32.5 25.088L29.3939 26.4191C28.8863 26.6367 28.2984 26.4015 28.0809 25.8939C27.8633 25.3863 28.0985 24.7984 28.6061 24.5809L32.1061 23.0809Z" fill="#4CAF50"/>
</svg>
