<svg width="65" height="64" viewBox="0 0 65 64" fill="none" xmlns="http://www.w3.org/2000/svg">
<circle opacity="0.16" cx="32.5" cy="32" r="32" fill="#4CAF50"/>
<path fill-rule="evenodd" clip-rule="evenodd" d="M21.5 20C22.0523 20 22.5 20.4477 22.5 21V23.375H27.1492L27.4231 23.1559C28.8641 22.0031 30.6546 21.375 32.5 21.375C34.3454 21.375 36.1359 22.0031 37.5769 23.1559L37.8508 23.375H42.5V21C42.5 20.4477 42.9477 20 43.5 20C44.0523 20 44.5 20.4477 44.5 21V23.375V25.625V32.7292C45.1224 33.4343 45.5 34.3606 45.5 35.375V35.384C46.6213 35.485 47.5 36.4274 47.5 37.575V40.175C47.5 41.39 46.515 42.375 45.3 42.375H43.5V43C43.5 43.5523 43.0523 44 42.5 44C41.9477 44 41.5 43.5523 41.5 43V42.375H23.5V43C23.5 43.5523 23.0523 44 22.5 44C21.9477 44 21.5 43.5523 21.5 43V42.375H19.7C18.485 42.375 17.5 41.39 17.5 40.175V37.575C17.5 36.4274 18.3787 35.485 19.5 35.384V35.375C19.5 34.3606 19.8776 33.4343 20.5 32.7292V25.625V23.375V21C20.5 20.4477 20.9477 20 21.5 20ZM42.5 25.625V25.375H37.1492L36.3275 24.7176C35.2411 23.8485 33.8913 23.375 32.5 23.375C31.1087 23.375 29.7589 23.8485 28.6725 24.7176L27.8508 25.375H22.5V25.625V31.375H23.5H23.952C24.3638 30.2098 25.475 29.375 26.7812 29.375H28.7812C30.0875 29.375 31.1987 30.2098 31.6105 31.375H33.3895C33.8013 30.2098 34.9125 29.375 36.2188 29.375H38.2188C39.525 29.375 40.6362 30.2098 41.048 31.375H41.5H42.5V25.625ZM45.3 40.375H42.5H22.5H19.7C19.5895 40.375 19.5 40.2855 19.5 40.175V37.575C19.5 37.4645 19.5895 37.375 19.7 37.375H45.3C45.4105 37.375 45.5 37.4645 45.5 37.575V40.175C45.5 40.2855 45.4105 40.375 45.3 40.375ZM43.5 35.375C43.5 34.2704 42.6046 33.375 41.5 33.375H40.2188H34.2188H30.7812H24.7812H23.5C22.3954 33.375 21.5 34.2704 21.5 35.375H43.5Z" fill="#4CAF50"/>
</svg>
