<svg width="65" height="64" viewBox="0 0 65 64" fill="none" xmlns="http://www.w3.org/2000/svg">
<circle opacity="0.16" cx="32.5" cy="32" r="32" fill="#4CAF50"/>
<path fill-rule="evenodd" clip-rule="evenodd" d="M34.7489 18C31.711 18 29.1252 19.9265 28.1429 22.6232C24.3314 23.543 21.5 26.9743 21.5 31.0685C21.5 35.8665 25.3895 39.756 30.1875 39.756C30.6333 39.756 31.0717 39.7224 31.5 39.6574V44H27.5C26.9477 44 26.5 44.4477 26.5 45C26.5 45.5523 26.9477 46 27.5 46H32.5H37.5C38.0523 46 38.5 45.5523 38.5 45C38.5 44.4477 38.0523 44 37.5 44H33.5V39.3431C34.2734 39.6108 35.1033 39.756 35.9655 39.756C40.1266 39.756 43.4998 36.3828 43.4998 32.2218C43.4998 30.2344 42.7294 28.426 41.4731 27.0806C41.6712 26.4306 41.7776 25.7414 41.7776 25.0287C41.7776 21.1469 38.6308 18 34.7489 18ZM33.5 37.1896C33.5419 37.2028 33.5832 37.2189 33.6234 37.2377C34.3335 37.5699 35.1264 37.756 35.9655 37.756C39.022 37.756 41.4998 35.2783 41.4998 32.2218C41.4998 30.5805 40.7866 29.1071 39.65 28.0922C39.3323 27.8085 39.2292 27.3547 39.393 26.9616C39.6405 26.3678 39.7776 25.7156 39.7776 25.0287C39.7776 22.2514 37.5262 20 34.7489 20C32.4181 20 30.4553 21.5867 29.8865 23.7404C29.786 24.121 29.4716 24.4072 29.0833 24.4716C25.9155 24.9973 23.5 27.7518 23.5 31.0685C23.5 34.7619 26.4941 37.756 30.1875 37.756C30.6372 37.756 31.076 37.7118 31.5 37.6275V32.7882C31.4923 32.7809 31.4846 32.7735 31.4771 32.7659L29.137 30.4259C28.7465 30.0353 28.7465 29.4022 29.137 29.0116C29.5275 28.6211 30.1607 28.6211 30.5512 29.0116L31.5 29.9605V27.3125C31.5 26.7602 31.9477 26.3125 32.5 26.3125C33.0523 26.3125 33.5 26.7602 33.5 27.3125L33.5 32.9607L34.4491 32.0116C34.8396 31.6211 35.4727 31.6211 35.8633 32.0116C36.2538 32.4022 36.2538 33.0353 35.8633 33.4259L33.5232 35.7659C33.5155 35.7736 33.5078 35.7811 33.5 35.7884V37.1896Z" fill="#4CAF50"/>
</svg>
